# 3ds Max Wavefront OBJ Exporter v0.97b - (c)2007 guruware
# File Created: 04.05.2017 00:13:40

mtllib TEST.mtl

#
# object Box001
#

v  6.4493 -71.5275 118.8007
v  6.4493 -71.5275 40.5495
v  78.6802 -71.5275 40.5495
v  78.6802 -71.5275 118.8007
v  6.4493 28.9301 118.8007
v  78.6802 28.9301 118.8007
v  78.6802 28.9301 40.5495
v  6.4493 28.9301 40.5495
v  6.4493 -71.0392 40.5495
v  28.4497 -71.0392 40.5495
v  28.4497 28.7905 40.5495
v  6.4493 28.7905 40.5495
v  6.4493 -71.0392 78.7402
v  6.4493 -59.7700 78.7402
v  6.4493 16.6019 78.7402
v  6.4493 28.7905 78.7402
v  -5.9625 -8.0606 78.7402
v  -63.8842 -8.0606 78.7402
v  -63.8842 -8.0606 -0.0000
v  -5.9625 -8.0606 -0.0000
v  -5.9625 -36.9676 78.7402
v  -5.9625 -36.9676 -0.0000
v  -65.2470 -36.9676 78.7402
v  -65.2470 -36.9676 -0.0000
v  -65.2470 -71.0392 78.7402
v  -65.2470 -71.0392 -0.0000
v  28.4497 -71.0392 -0.0000
v  -63.8808 28.7905 78.7402
v  -63.8808 28.7905 0.0000
v  28.4497 28.7905 0.0000
# 30 vertices

vn 0.0000 -1.0000 -0.0000
vn -0.0000 1.0000 -0.0000
vn 0.0000 0.0000 1.0000
vn 1.0000 -0.0000 -0.0000
vn 0.0000 0.0000 -1.0000
vn -1.0000 0.0000 -0.0000
vn 0.0000 1.0000 0.0000
vn -0.0000 -1.0000 -0.0000
vn -1.0000 0.0001 0.0000
vn -0.0000 0.0000 -1.0000
vn -0.0000 -0.0000 1.0000
vn 0.0000 -0.0000 1.0000
vn 1.0000 0.0000 -0.0000
vn 0.0000 1.0000 -0.0000
# 14 vertex normals

vt 1.0000 0.0000 0.0000
vt 1.0000 78.2512 0.0000
vt -60.6123 78.2512 0.0000
vt -60.6123 0.0000 0.0000
vt 0.0000 0.0000 0.0000
vt 61.6123 0.0000 0.0000
vt 61.6123 78.2512 0.0000
vt 0.0000 78.2512 0.0000
vt 61.6123 127.0865 0.0000
vt 0.0000 127.0865 0.0000
vt 78.2512 0.0000 0.0000
vt 78.2512 127.0865 0.0000
vt 61.6123 0.4883 0.0000
vt 50.2304 0.4883 0.0000
vt 50.2304 100.3179 0.0000
vt 61.6123 100.3179 0.0000
vt 0.0000 0.4883 0.0000
vt 38.1906 0.4883 0.0000
vt 38.1906 11.7575 0.0000
vt 38.1907 88.1294 0.0000
vt 38.1907 100.3179 0.0000
vt 0.0000 100.3179 0.0000
vt -53.8365 0.9350 63.4668
vt -111.7582 0.9350 63.4668
vt -111.7582 79.6751 63.4669
vt -53.8365 79.6751 63.4669
vt -53.8365 0.9350 34.5598
vt -53.8365 79.6751 34.5598
vt -113.1210 0.9350 34.5598
vt -113.1210 79.6751 34.5598
vt -113.1210 0.9350 0.4883
vt -113.1210 79.6751 0.4883
vt -19.4243 79.6751 0.4883
vt -19.4243 39.1256 0.4883
vt -30.8062 39.1256 0.4883
vt -30.8062 0.9350 0.4883
vt -111.7548 0.9349 100.3179
vt -111.7548 79.6751 100.3179
vt -30.8062 0.9349 88.1294
vt -30.8062 0.9349 100.3179
vt -19.4243 79.6751 100.3179
vt -30.8062 0.9350 11.7575
vt -19.4243 39.1256 100.3179
vt -30.8062 39.1256 100.3179
# 44 texture coords

g Box001
usemtl wire_088144225
s 2
f 1/1/1 2/2/1 3/3/1 4/4/1 
s 4
f 5/5/2 6/6/2 7/7/2 8/8/2 
s 8
f 1/5/3 4/6/3 6/9/3 5/10/3 
s 16
f 4/5/4 3/11/4 7/12/4 6/10/4 
s 32
f 2/6/5 9/13/5 10/14/5 3/5/5 
f 11/15/5 12/16/5 8/9/5 7/10/5 
f 10/14/5 11/15/5 7/10/5 3/5/5 
s 64
f 9/17/6 2/5/6 1/11/6 13/18/6 
f 13/18/6 1/11/6 5/12/6 14/19/6 
f 15/20/6 14/19/6 5/12/6 16/21/6 
f 16/21/6 5/12/6 8/10/6 12/22/6 
s 1
f 17/23/1 18/24/1 19/25/1 20/26/1 
s 4
f 21/27/6 17/23/6 20/26/6 22/28/6 
s 2
f 23/29/7 21/27/7 22/28/7 24/30/7 
s 4
f 25/31/6 23/29/6 24/30/6 26/32/6 
s 2
f 27/33/1 10/34/1 9/35/1 26/32/8 
f 9/35/1 13/36/1 25/31/8 26/32/8 
s 4
f 18/24/9 28/37/9 29/38/9 19/25/9 
s 16
f 26/32/5 24/30/5 22/28/10 27/33/10 
f 17/23/11 15/39/11 16/40/11 18/24/12 
f 28/37/12 18/24/12 16/40/11 
f 27/33/10 22/28/10 20/26/10 30/41/5 
f 29/38/5 30/41/5 20/26/10 19/25/5 
f 25/31/12 13/36/12 14/42/12 23/29/12 
f 21/27/12 23/29/12 14/42/12 
s 4
f 27/33/13 30/41/13 11/43/13 10/34/13 
s 2
f 12/44/7 11/43/7 30/41/7 29/38/7 
f 12/44/7 29/38/7 28/37/7 16/40/14 
s 16
f 17/23/11 21/27/12 14/42/12 15/39/11 
# 27 polygons - 2 triangles

#
# object Box002
#

v  49.5319 58.8631 450.6666
v  88.1517 58.8631 450.6666
v  88.1517 58.8631 414.9032
v  49.5319 58.8631 414.9032
# 4 vertices

vn 0.0000 1.0000 -0.0000
# 1 vertex normals

vt 0.0000 0.0000 0.0000
vt 161.3100 0.0000 0.0000
vt 161.3100 73.7254 0.0000
vt 0.0000 73.7254 0.0000
# 4 texture coords

g Box002
usemtl wire_088144225
s 4
f 31/45/15 32/46/15 33/47/15 34/48/15 
# 1 polygons

#
# object Object001
#

v  -12.3755 0.0000 450.6666
v  148.9344 0.0000 450.6666
v  88.1517 58.8631 450.6666
v  49.5319 58.8631 450.6666
# 4 vertices

vn 0.0000 0.0000 1.0000
# 1 vertex normals

vt 0.0000 0.0000 0.0000
vt 161.3100 0.0000 0.0000
vt 161.3100 58.8631 0.0000
vt 0.0000 58.8631 0.0000
# 4 texture coords

g Object001
usemtl wire_088144225
s 8
f 35/49/16 36/50/16 37/51/16 38/52/16 
# 1 polygons

#
# object Object002
#

v  -12.3755 0.0000 414.9032
v  -12.3755 0.0000 450.6666
v  49.5319 58.8631 450.6666
v  49.5319 58.8631 414.9032
# 4 vertices

vn -0.6891 0.7247 -0.0000
# 1 vertex normals

vt 0.0000 0.0000 0.0000
vt 73.7254 0.0000 0.0000
vt 73.7254 58.8631 0.0000
vt 0.0000 58.8631 0.0000
# 4 texture coords

g Object002
usemtl wire_088144225
s 64
f 39/53/17 40/54/17 41/55/17 42/56/17 
# 1 polygons

#
# object Object003
#

v  148.9344 0.0000 450.6666
v  148.9344 0.0000 414.9032
v  88.1517 58.8631 414.9032
v  88.1517 58.8631 450.6666
# 4 vertices

vn 0.6957 0.7184 -0.0000
# 1 vertex normals

vt 0.0000 0.0000 0.0000
vt 73.7254 0.0000 0.0000
vt 73.7254 58.8631 0.0000
vt 0.0000 58.8631 0.0000
# 4 texture coords

g Object003
usemtl wire_088144225
s 16
f 43/57/18 44/58/18 45/59/18 46/60/18 
# 1 polygons

#
# object Object004
#

v  148.9344 0.0000 414.9032
v  -12.3755 0.0000 414.9032
v  49.5319 58.8631 414.9032
v  88.1517 58.8631 414.9032
# 4 vertices

vn 0.0000 0.0000 -1.0000
# 1 vertex normals

vt 0.0000 0.0000 0.0000
vt 161.3100 0.0000 0.0000
vt 161.3100 58.8631 0.0000
vt 0.0000 58.8631 0.0000
# 4 texture coords

g Object004
usemtl wire_088144225
s 32
f 47/61/19 48/62/19 49/63/19 50/64/19 
# 1 polygons

#
# object Object005
#

v  -12.3755 0.0000 450.6666
v  -12.3755 0.0000 414.9032
v  148.9344 0.0000 414.9032
v  148.9344 0.0000 450.6666
# 4 vertices

vn 0.0000 -1.0000 -0.0000
# 1 vertex normals

vt 161.3100 0.0000 0.0000
vt 161.3100 73.7254 0.0000
vt 0.0000 73.7254 0.0000
vt 0.0000 0.0000 0.0000
# 4 texture coords

g Object005
usemtl wire_088144225
s 2
f 51/65/20 52/66/20 53/67/20 54/68/20 
# 1 polygons

